<svg width="753" height="185" viewBox="0 0 753 185" fill="none" xmlns="http://www.w3.org/2000/svg">
<path d="M559.422 112.348C559.422 99.7062 561.785 88.6076 566.512 79.0525C571.386 69.4973 577.959 62.1472 586.231 57.0022C594.502 51.8571 603.734 49.2846 613.925 49.2846C622.64 49.2846 630.247 51.0486 636.746 54.5766C643.393 58.1047 648.489 62.7352 652.033 68.4683V51.0486H689.92V174.089H652.033V156.669C648.341 162.403 643.171 167.033 636.524 170.561C630.025 174.089 622.419 175.853 613.704 175.853C603.66 175.853 594.502 173.281 586.231 168.136C577.959 162.844 571.386 155.42 566.512 145.865C561.785 136.163 559.422 124.991 559.422 112.348ZM652.033 112.569C652.033 103.161 649.375 95.7372 644.057 90.2981C638.888 84.859 632.536 82.1395 625.003 82.1395C617.47 82.1395 611.045 84.859 605.728 90.2981C600.558 95.5902 597.973 102.94 597.973 112.348C597.973 121.757 600.558 129.254 605.728 134.84C611.045 140.279 617.47 142.998 625.003 142.998C632.536 142.998 638.888 140.279 644.057 134.84C649.375 129.401 652.033 121.977 652.033 112.569Z" fill="url(#paint0_linear_591_1435)"/>
<path d="M753 10.9171V174.089H715.114V10.9171H753Z" fill="url(#paint1_linear_591_1435)"/>
<path d="M37.6409 145.134H86.9482V174.098H0V20.0638H37.6409V145.134Z" fill="url(#paint2_linear_591_1435)"/>
<path d="M218.485 110.904C218.485 114.415 218.265 118.072 217.825 121.875H132.637C133.224 129.482 135.646 135.333 139.901 139.429C144.304 143.379 149.66 145.354 155.97 145.354C165.362 145.354 171.892 141.404 175.561 133.505H215.623C213.569 141.55 209.827 148.791 204.397 155.228C199.114 161.664 192.437 166.711 184.366 170.368C176.295 174.025 167.27 175.853 157.291 175.853C145.258 175.853 134.545 173.293 125.153 168.173C115.761 163.054 108.424 155.74 103.141 146.231C97.858 136.723 95.2165 125.606 95.2165 112.879C95.2165 100.153 97.7846 89.0354 102.921 79.5271C108.204 70.0188 115.541 62.7048 124.933 57.5849C134.325 52.4651 145.111 49.9051 157.291 49.9051C169.178 49.9051 179.743 52.3919 188.989 57.3655C198.234 62.3391 205.424 69.4337 210.561 78.6494C215.843 87.8651 218.485 98.6168 218.485 110.904ZM179.964 101.03C179.964 94.594 177.762 89.4742 173.36 85.6709C168.957 81.8676 163.454 79.9659 156.851 79.9659C150.541 79.9659 145.184 81.7944 140.782 85.4515C136.526 89.1085 133.885 94.3015 132.857 101.03H179.964Z" fill="url(#paint3_linear_591_1435)"/>
<path d="M308.781 174.098L285.228 140.087L265.417 174.098H224.695L265.197 111.563L223.594 51.6605H265.858L289.411 85.4515L309.222 51.6605H349.944L308.781 113.318L351.045 174.098H308.781Z" fill="url(#paint4_linear_591_1435)"/>
<path d="M377.092 32.1739C377.092 14.4048 391.569 0 409.426 0H501.041C518.898 0 533.375 14.4048 533.375 32.1739V90.2981L515.5 73.5C510.5 69 505.911 65.5777 498.301 65.393L455.233 64.3478H409.426C391.569 64.3478 377.092 49.9431 377.092 32.1739Z" fill="url(#paint5_linear_591_1435)"/>
<path d="M519.902 103.415C519.902 85.6459 505.426 71.0507 487.568 71.0507H409.426C391.569 71.0507 377.092 85.4555 377.092 103.225V185L386.02 152.551C388.745 142.647 397.79 135.779 408.11 135.779H487.568C505.426 135.779 519.902 121.184 519.902 103.415Z" fill="url(#paint6_linear_591_1435)"/>
<defs>
<linearGradient id="paint0_linear_591_1435" x1="-18.8182" y1="146.081" x2="71.8147" y2="-178.215" gradientUnits="userSpaceOnUse">
<stop offset="0.0412" stop-color="#1E82EA"/>
<stop offset="0.8496" stop-color="#8C15E8"/>
</linearGradient>
<linearGradient id="paint1_linear_591_1435" x1="-18.8182" y1="146.081" x2="71.8147" y2="-178.215" gradientUnits="userSpaceOnUse">
<stop offset="0.0412" stop-color="#1E82EA"/>
<stop offset="0.8496" stop-color="#8C15E8"/>
</linearGradient>
<linearGradient id="paint2_linear_591_1435" x1="-18.8182" y1="146.081" x2="71.8147" y2="-178.215" gradientUnits="userSpaceOnUse">
<stop offset="0.0412" stop-color="#1E82EA"/>
<stop offset="0.8496" stop-color="#8C15E8"/>
</linearGradient>
<linearGradient id="paint3_linear_591_1435" x1="-18.8182" y1="146.081" x2="71.8147" y2="-178.215" gradientUnits="userSpaceOnUse">
<stop offset="0.0412" stop-color="#1E82EA"/>
<stop offset="0.8496" stop-color="#8C15E8"/>
</linearGradient>
<linearGradient id="paint4_linear_591_1435" x1="-18.8182" y1="146.081" x2="71.8147" y2="-178.215" gradientUnits="userSpaceOnUse">
<stop offset="0.0412" stop-color="#1E82EA"/>
<stop offset="0.8496" stop-color="#8C15E8"/>
</linearGradient>
<linearGradient id="paint5_linear_591_1435" x1="-18.8182" y1="146.081" x2="71.8147" y2="-178.215" gradientUnits="userSpaceOnUse">
<stop offset="0.0412" stop-color="#1E82EA"/>
<stop offset="0.8496" stop-color="#8C15E8"/>
</linearGradient>
<linearGradient id="paint6_linear_591_1435" x1="-18.8182" y1="146.081" x2="71.8147" y2="-178.215" gradientUnits="userSpaceOnUse">
<stop offset="0.0412" stop-color="#1E82EA"/>
<stop offset="0.8496" stop-color="#8C15E8"/>
</linearGradient>
</defs>
</svg>
